<?xml version="1.0" standalone="no"?>
<!DOCTYPE svg PUBLIC "-//W3C//DTD SVG 20010904//EN"
 "http://www.w3.org/TR/2001/REC-SVG-20010904/DTD/svg10.dtd">
<svg version="1.0" xmlns="http://www.w3.org/2000/svg"
 width="700.000000pt" height="700.000000pt" viewBox="0 0 700.000000 700.000000"
 preserveAspectRatio="xMidYMid meet">
<metadata>
Created by potrace 1.14, written by Peter Selinger 2001-2017
</metadata>
<g transform="translate(0.000000,700.000000) scale(0.100000,-0.100000)"
fill="#000000" stroke="none">
<path d="M1843 6313 c-3 -10 -19 -46 -34 -81 -16 -35 -29 -65 -29 -67 0 -3
-15 -37 -34 -77 -18 -40 -99 -221 -179 -403 l-145 -330 0 -255 c-1 -140 -1
-262 -1 -271 -1 -15 -35 -17 -381 -15 -209 0 -380 -1 -381 -4 -1 -3 -2 -150
-3 -327 0 -208 3 -324 9 -326 6 -1 176 -2 378 -2 202 1 370 -2 373 -7 4 -7 8
-1452 5 -1603 l-1 -30 -379 0 c-373 0 -380 0 -383 -20 -2 -11 -3 -157 -3 -325
l1 -305 382 -3 382 -2 1 -98 c0 -53 1 -324 2 -602 l2 -505 435 0 435 1 2 504
c1 278 2 549 2 603 l1 97 380 0 380 0 1 -92 c0 -51 1 -322 1 -603 l1 -510 436
0 436 0 2 470 c1 259 2 530 2 603 l1 132 380 0 380 0 1 -72 c0 -40 1 -310 2
-600 0 -291 3 -529 6 -529 3 -1 201 -2 438 -3 l433 -1 0 485 c-1 267 -1 538 0
603 l0 117 383 0 382 0 -2 322 c0 178 -1 325 -2 328 -1 3 -170 5 -377 5 -207
0 -378 3 -380 7 -4 6 -5 445 -4 1368 l0 266 382 0 382 0 1 315 c0 172 -1 321
-3 329 -3 13 -52 15 -383 13 l-379 -2 0 47 c0 26 -1 149 -1 273 l0 226 -153
344 c-84 189 -159 358 -166 374 -7 17 -25 57 -40 90 -15 33 -38 84 -50 113
-12 28 -25 52 -29 52 -4 0 -103 -217 -221 -482 l-215 -483 -2 -260 c-1 -143
-2 -268 -2 -277 -1 -15 -32 -17 -381 -16 -343 1 -380 2 -381 17 0 9 -1 131 -1
271 l0 255 -125 285 c-69 157 -141 319 -160 360 -19 41 -60 132 -90 203 -31
70 -59 127 -62 127 -4 0 -42 -80 -86 -177 -43 -98 -93 -211 -112 -251 -18 -39
-33 -74 -33 -76 0 -3 -13 -33 -29 -68 -24 -53 -137 -306 -166 -373 -5 -11 -10
-132 -11 -270 -1 -137 -3 -262 -3 -277 l-1 -26 -382 0 -383 0 1 273 2 272 -50
114 c-27 63 -64 146 -82 184 -18 39 -92 206 -166 373 -74 166 -137 302 -142
302 -5 0 -11 -8 -15 -17z m1212 -2165 c5 -5 11 -1509 6 -1613 -1 -20 -8 -20
-381 -20 -373 0 -380 0 -381 20 -1 26 -1 1366 0 1511 l1 110 374 0 c206 -1
377 -4 381 -8z m1646 -88 c4 -391 3 -1509 -1 -1525 -5 -20 -13 -20 -382 -20
-330 0 -378 2 -379 15 -1 19 -1 1403 0 1531 l1 95 380 0 380 0 1 -96z"/>
</g>
</svg>
